<?xml version="1.0" encoding="UTF-8"?>
<svg xmlns="http://www.w3.org/2000/svg" xmlns:xlink="http://www.w3.org/1999/xlink" width="128px" height="128px" viewBox="0 0 128 128" version="1.1">
<g id="surface1">
<path style=" stroke:none;fill-rule:nonzero;fill:currentColor;fill-opacity:1;" d="M 75.207031 1.648438 L 75.621094 1.753906 C 77.652344 2.269531 79.691406 2.949219 81.507812 4.015625 C 81.859375 4.214844 82.125 4.335938 82.507812 4.433594 C 83.324219 4.691406 84 5.152344 84.714844 5.613281 C 84.980469 5.78125 85.246094 5.949219 85.515625 6.113281 C 86.734375 6.859375 87.914062 7.636719 89.03125 8.53125 C 89.40625 8.832031 89.792969 9.113281 90.183594 9.394531 C 90.464844 9.625 90.464844 9.625 90.792969 9.949219 C 91.175781 10.332031 91.585938 10.671875 92.003906 11.015625 C 92.738281 11.625 93.371094 12.273438 94 12.992188 C 94.292969 13.308594 94.589844 13.585938 94.917969 13.859375 C 95.363281 14.234375 95.660156 14.625 95.964844 15.125 L 96.207031 15.363281 C 96.378906 15.535156 96.378906 15.535156 96.378906 15.8125 L 96.625 15.914062 C 96.96875 16.109375 97.121094 16.292969 97.347656 16.609375 L 97.550781 16.886719 C 97.691406 17.097656 97.828125 17.308594 97.953125 17.527344 C 98.164062 17.871094 98.390625 18.175781 98.636719 18.492188 C 99.511719 19.683594 100.203125 20.984375 100.914062 22.273438 L 101.109375 22.625 C 101.863281 23.988281 102.507812 25.34375 103.019531 26.816406 C 103.117188 27.089844 103.21875 27.359375 103.324219 27.628906 C 104.304688 30.144531 104.882812 32.664062 105.316406 35.335938 L 105.386719 35.75 C 106.0625 39.933594 106.015625 44.492188 105.316406 48.671875 L 105.238281 49.140625 C 104.925781 51.035156 104.566406 52.902344 103.941406 54.71875 L 103.832031 55.027344 C 102.988281 57.445312 102.015625 59.785156 100.777344 62.03125 C 100.65625 62.253906 100.535156 62.480469 100.417969 62.707031 C 99.914062 63.660156 99.324219 64.550781 98.714844 65.445312 L 98.425781 65.894531 C 98.164062 66.269531 98.164062 66.269531 97.890625 66.40625 L 97.726562 66.75 C 97.328125 67.519531 96.796875 68.1875 96.183594 68.800781 C 95.816406 69.167969 95.492188 69.558594 95.167969 69.964844 C 94.6875 70.550781 94.1875 71.066406 93.601562 71.550781 C 93.351562 71.769531 93.15625 71.992188 92.949219 72.25 C 92.402344 72.914062 91.703125 73.554688 90.878906 73.832031 L 90.757812 74.082031 C 90.550781 74.480469 90.292969 74.636719 89.925781 74.886719 C 89.371094 75.277344 88.839844 75.679688 88.316406 76.117188 C 87.875 76.484375 87.433594 76.824219 86.953125 77.136719 C 85.882812 77.832031 84.949219 78.601562 84.125 79.582031 C 83.867188 79.878906 83.867188 79.878906 83.53125 80.207031 C 82.414062 81.347656 81.75 82.640625 81.253906 84.140625 L 81.074219 84.65625 C 80.023438 87.625 80.023438 87.625 80.636719 90.613281 C 80.898438 91.125 81.183594 91.613281 81.496094 92.09375 C 81.957031 92.898438 81.839844 93.847656 81.847656 94.746094 L 81.859375 95.238281 C 81.867188 96.570312 81.617188 97.613281 80.816406 98.691406 C 80.503906 99.113281 80.355469 99.429688 80.292969 99.953125 C 80.34375 100.328125 80.34375 100.328125 80.429688 100.640625 L 80.703125 100.640625 C 80.863281 100.921875 81.019531 101.207031 81.175781 101.492188 L 81.441406 101.96875 C 82.113281 103.335938 82.085938 105.574219 81.71875 107.03125 C 81.5 107.605469 81.191406 108.109375 80.84375 108.613281 C 80.632812 108.933594 80.457031 109.230469 80.292969 109.578125 C 80.453125 110.242188 80.777344 110.800781 81.125 111.382812 C 82.070312 112.960938 82.148438 115.15625 81.71875 116.941406 C 81.390625 117.855469 80.851562 118.527344 80.15625 119.199219 C 80.023438 119.355469 79.894531 119.515625 79.769531 119.671875 C 78.871094 120.726562 77.679688 121.453125 76.304688 121.675781 C 75.863281 121.710938 75.425781 121.726562 74.984375 121.746094 L 74.207031 121.777344 L 72.980469 121.832031 C 72.585938 121.847656 72.191406 121.863281 71.796875 121.882812 L 71.425781 121.898438 L 71.082031 121.910156 L 70.777344 121.925781 C 70.515625 121.9375 70.515625 121.9375 70.253906 122.089844 C 70.148438 122.402344 70.046875 122.722656 69.953125 123.042969 C 69.664062 123.980469 69.289062 124.800781 68.605469 125.523438 L 68.320312 125.664062 C 67.980469 125.839844 67.945312 126.015625 67.78125 126.351562 C 67.515625 126.570312 67.515625 126.570312 67.207031 126.769531 L 66.898438 126.972656 C 65.867188 127.558594 65.121094 127.652344 63.941406 127.640625 L 63.503906 127.644531 C 61.667969 127.636719 60.542969 126.867188 59.222656 125.640625 C 58.371094 124.746094 57.972656 123.519531 57.703125 122.335938 L 57.605469 122.089844 C 57.097656 121.917969 56.609375 121.910156 56.078125 121.890625 C 55.851562 121.882812 55.621094 121.871094 55.394531 121.859375 C 55.039062 121.84375 54.679688 121.832031 54.324219 121.816406 C 50.34375 121.660156 50.34375 121.660156 48.671875 120.300781 C 48.460938 120.15625 48.253906 120.007812 48.042969 119.863281 C 47.726562 119.640625 47.59375 119.546875 47.472656 119.175781 L 47.433594 118.925781 L 47.15625 118.925781 C 46.023438 116.796875 45.5 114.875 46.1875 112.445312 C 46.5 111.601562 46.96875 110.84375 47.441406 110.082031 C 47.613281 109.714844 47.613281 109.714844 47.441406 109.335938 L 47.15625 108.890625 C 45.976562 107.007812 45.625 105.085938 46.082031 102.890625 C 46.300781 102.042969 46.582031 101.042969 47.246094 100.433594 C 47.457031 100.238281 47.457031 100.238281 47.472656 99.957031 C 47.394531 99.179688 47.171875 98.773438 46.675781 98.179688 C 46.320312 97.679688 46.191406 97.109375 46.058594 96.515625 L 45.980469 96.183594 C 45.71875 94.644531 45.867188 92.722656 46.679688 91.347656 C 46.898438 91.066406 46.898438 91.066406 47.109375 90.847656 C 47.835938 89.902344 47.644531 88.539062 47.507812 87.429688 C 47.222656 85.46875 46.5 83.789062 45.507812 82.078125 L 45.367188 81.8125 C 45.003906 81.121094 44.515625 80.585938 43.996094 80.015625 L 43.691406 79.671875 C 42.808594 78.664062 41.933594 77.878906 40.796875 77.171875 L 40.558594 76.992188 L 40.558594 76.71875 L 40.332031 76.613281 C 39.9375 76.40625 39.59375 76.152344 39.234375 75.882812 C 38.746094 75.515625 38.746094 75.515625 38.222656 75.207031 L 38.222656 74.929688 L 38.003906 74.839844 C 37.53125 74.578125 37.148438 74.230469 36.742188 73.875 L 36.484375 73.648438 C 36.238281 73.433594 35.992188 73.21875 35.746094 73.003906 L 35.410156 72.710938 C 35.234375 72.558594 35.0625 72.40625 34.886719 72.253906 C 34.714844 72.105469 34.542969 71.957031 34.367188 71.816406 L 34.097656 71.597656 L 33.855469 71.40625 C 33.683594 71.21875 33.683594 71.21875 33.683594 70.804688 L 33.433594 70.695312 C 32.335938 70.09375 31.5 68.609375 30.730469 67.632812 C 30.59375 67.460938 30.457031 67.289062 30.320312 67.117188 C 29.101562 65.585938 29.101562 65.585938 28.742188 64.765625 C 28.574219 64.4375 28.371094 64.15625 28.152344 63.855469 C 27.636719 63.128906 27.222656 62.375 26.820312 61.585938 L 26.601562 61.164062 C 26.460938 60.882812 26.320312 60.605469 26.175781 60.324219 C 26.015625 60.003906 25.847656 59.683594 25.683594 59.363281 C 23.035156 54.164062 22.027344 48.167969 22.074219 42.394531 C 22.074219 42.007812 22.074219 41.617188 22.074219 41.230469 C 22.066406 38.375 22.246094 35.617188 22.953125 32.84375 C 23 32.636719 23 32.636719 23.050781 32.429688 C 23.292969 31.453125 23.59375 30.507812 23.921875 29.558594 C 24.027344 29.246094 24.132812 28.933594 24.238281 28.621094 C 24.304688 28.421875 24.363281 28.21875 24.417969 28.011719 C 24.691406 27.007812 25.125 26.097656 25.574219 25.167969 C 25.710938 24.882812 25.84375 24.59375 25.972656 24.304688 C 26.726562 22.648438 27.566406 21.058594 28.699219 19.625 C 28.882812 19.371094 29.007812 19.121094 29.136719 18.835938 C 29.386719 18.308594 29.710938 17.929688 30.105469 17.503906 C 30.433594 17.128906 30.730469 16.734375 31.027344 16.335938 C 31.703125 15.441406 32.449219 14.628906 33.21875 13.816406 C 33.488281 13.527344 33.746094 13.230469 34.003906 12.933594 C 35.230469 11.5625 36.621094 10.324219 38.082031 9.210938 C 38.269531 9.066406 38.457031 8.921875 38.644531 8.777344 C 39.84375 7.847656 41.03125 6.953125 42.351562 6.203125 C 42.632812 6.042969 42.90625 5.878906 43.183594 5.714844 L 43.476562 5.539062 C 43.671875 5.421875 43.871094 5.304688 44.066406 5.183594 C 44.660156 4.832031 45.257812 4.527344 45.890625 4.257812 C 46.183594 4.128906 46.46875 3.996094 46.753906 3.859375 C 48.613281 2.964844 50.425781 2.199219 52.441406 1.734375 C 52.863281 1.632812 53.28125 1.527344 53.699219 1.417969 C 60.820312 -0.429688 68.09375 -0.191406 75.207031 1.648438 Z M 52.269531 6.359375 C 51.871094 6.496094 51.472656 6.605469 51.066406 6.71875 C 49.636719 7.152344 48.195312 7.796875 46.902344 8.550781 C 46.570312 8.742188 46.296875 8.878906 45.9375 8.988281 C 45.261719 9.230469 44.71875 9.628906 44.132812 10.035156 C 43.886719 10.203125 43.636719 10.367188 43.386719 10.53125 C 41.53125 11.738281 41.53125 11.738281 39.871094 13.199219 C 39.710938 13.316406 39.550781 13.429688 39.390625 13.542969 C 38.953125 13.847656 38.578125 14.175781 38.222656 14.574219 L 38.222656 14.847656 L 37.996094 14.941406 C 37.15625 15.40625 36.625 16.058594 36.042969 16.804688 C 35.730469 17.203125 35.414062 17.59375 35.09375 17.984375 C 34.898438 18.222656 34.703125 18.460938 34.507812 18.699219 L 34.25 19.011719 C 33.859375 19.515625 33.492188 20.035156 33.125 20.554688 L 32.90625 20.867188 C 32.21875 21.707031 32.21875 21.707031 31.898438 22.683594 L 31.621094 22.683594 L 31.433594 23.058594 C 31.296875 23.335938 31.160156 23.613281 31.019531 23.890625 C 30.726562 24.480469 30.429688 25.070312 30.125 25.65625 L 29.925781 26.054688 C 29.792969 26.3125 29.660156 26.570312 29.527344 26.824219 C 29.121094 27.628906 28.835938 28.417969 28.597656 29.285156 C 28.515625 29.515625 28.433594 29.742188 28.347656 29.972656 C 28.097656 30.652344 27.859375 31.332031 27.625 32.015625 L 27.523438 32.3125 C 25.191406 39.238281 25.863281 48.507812 28.660156 55.148438 C 28.824219 55.542969 28.949219 55.9375 29.0625 56.351562 C 29.277344 57.085938 29.597656 57.722656 29.964844 58.390625 L 30.140625 58.722656 C 30.410156 59.21875 30.683594 59.714844 30.964844 60.203125 C 31.210938 60.632812 31.210938 60.632812 31.390625 61.085938 C 31.675781 61.78125 32.144531 62.363281 32.585938 62.96875 C 32.753906 63.210938 32.921875 63.449219 33.089844 63.691406 L 33.332031 64.035156 C 33.5 64.277344 33.664062 64.523438 33.820312 64.773438 C 34.285156 65.441406 34.828125 66.039062 35.402344 66.613281 C 35.679688 66.890625 35.929688 67.171875 36.183594 67.472656 C 36.664062 68.027344 37.199219 68.503906 37.75 68.988281 C 38.054688 69.265625 38.316406 69.550781 38.582031 69.867188 C 39.035156 70.40625 39.542969 70.851562 40.144531 71.21875 L 40.421875 71.21875 L 40.507812 71.453125 C 40.761719 71.878906 41.117188 72.132812 41.511719 72.421875 L 41.753906 72.605469 C 42.242188 72.96875 42.734375 73.324219 43.230469 73.675781 C 47.007812 76.40625 47.007812 76.40625 47.433594 77.679688 C 47.660156 77.910156 47.886719 78.140625 48.121094 78.367188 C 48.863281 79.242188 49.542969 80.078125 49.917969 81.175781 C 50.066406 81.59375 50.257812 81.980469 50.449219 82.378906 C 51.152344 83.894531 51.601562 85.394531 51.851562 87.035156 C 51.925781 87.445312 51.925781 87.445312 52.195312 87.601562 C 52.625 87.753906 52.992188 87.75 53.449219 87.75 L 53.730469 87.753906 C 54.042969 87.753906 54.355469 87.753906 54.667969 87.753906 C 54.894531 87.753906 55.117188 87.753906 55.339844 87.753906 C 55.949219 87.753906 56.558594 87.753906 57.167969 87.753906 C 57.800781 87.753906 58.4375 87.753906 59.074219 87.753906 C 60.144531 87.753906 61.214844 87.753906 62.28125 87.753906 C 63.519531 87.75 64.753906 87.75 65.992188 87.753906 C 67.050781 87.753906 68.113281 87.753906 69.171875 87.753906 C 69.808594 87.753906 70.441406 87.753906 71.074219 87.753906 C 71.671875 87.753906 72.265625 87.753906 72.863281 87.753906 C 73.082031 87.753906 73.300781 87.753906 73.519531 87.753906 C 73.816406 87.753906 74.117188 87.753906 74.414062 87.75 L 74.921875 87.75 C 75.328125 87.71875 75.5625 87.683594 75.894531 87.441406 C 76 87.058594 76.070312 86.707031 76.132812 86.316406 C 76.523438 84.195312 77.1875 81.972656 78.367188 80.15625 L 78.519531 79.914062 C 79.476562 78.410156 80.53125 77.140625 81.804688 75.894531 L 82.007812 75.683594 C 82.625 75.078125 83.253906 74.542969 84.003906 74.105469 L 84.257812 73.84375 C 84.554688 73.554688 84.828125 73.382812 85.191406 73.1875 C 85.867188 72.792969 86.417969 72.324219 86.984375 71.789062 C 87.402344 71.402344 87.8125 71.039062 88.316406 70.769531 C 88.753906 70.480469 89.035156 70.128906 89.371094 69.730469 C 89.652344 69.421875 89.945312 69.152344 90.261719 68.878906 C 90.921875 68.308594 91.480469 67.675781 92.027344 66.996094 C 92.296875 66.664062 92.550781 66.386719 92.890625 66.121094 C 93.25 65.828125 93.398438 65.574219 93.628906 65.167969 C 94.046875 64.570312 94.488281 64.035156 95.003906 63.519531 C 95.445312 62.929688 95.660156 62.4375 95.828125 61.730469 L 96.101562 61.730469 C 96.363281 61.261719 96.625 60.792969 96.886719 60.320312 L 97.105469 59.925781 C 97.546875 59.128906 97.9375 58.308594 98.277344 57.460938 C 98.433594 57.070312 98.601562 56.683594 98.769531 56.296875 C 100.433594 52.390625 101.484375 48.050781 101.488281 43.792969 L 101.488281 43.394531 C 101.492188 43.117188 101.492188 42.839844 101.492188 42.558594 C 101.492188 42.144531 101.492188 41.730469 101.496094 41.3125 C 101.503906 38.136719 101.152344 35.074219 100.226562 32.035156 C 100.175781 31.851562 100.125 31.667969 100.074219 31.480469 C 99.5625 29.652344 98.945312 27.835938 98.046875 26.15625 C 97.921875 25.910156 97.808594 25.652344 97.703125 25.398438 C 97.464844 24.835938 97.171875 24.308594 96.867188 23.777344 C 96.816406 23.683594 96.761719 23.589844 96.707031 23.492188 C 96.390625 22.933594 96.050781 22.394531 95.691406 21.859375 C 95.585938 21.667969 95.488281 21.476562 95.390625 21.285156 C 95.023438 20.609375 94.546875 20.050781 94.050781 19.464844 C 93.816406 19.175781 93.632812 18.90625 93.457031 18.578125 C 93.195312 18.109375 92.910156 17.835938 92.527344 17.460938 C 92.195312 17.109375 91.863281 16.75 91.53125 16.394531 C 90.777344 15.589844 90.015625 14.796875 89.230469 14.023438 L 88.964844 13.742188 C 88.660156 13.457031 88.351562 13.273438 87.992188 13.0625 C 87.628906 12.777344 87.273438 12.480469 86.921875 12.1875 C 86.644531 11.933594 86.644531 11.933594 86.339844 11.960938 L 86.203125 11.550781 C 85.890625 11.339844 85.570312 11.140625 85.242188 10.957031 C 85.050781 10.84375 84.859375 10.734375 84.667969 10.621094 L 84.390625 10.460938 C 84.09375 10.285156 83.8125 10.089844 83.53125 9.890625 C 82.730469 9.347656 81.851562 8.945312 80.984375 8.523438 C 80.722656 8.394531 80.460938 8.265625 80.203125 8.132812 C 78.734375 7.382812 77.285156 6.664062 75.667969 6.300781 C 75.199219 6.1875 74.75 6.042969 74.292969 5.890625 C 72.113281 5.175781 69.925781 4.742188 67.644531 4.535156 L 67.164062 4.492188 C 61.992188 4.078125 57.171875 4.632812 52.269531 6.359375 Z M 50.871094 92.804688 C 50.375 93.5 50.058594 94.234375 50.117188 95.097656 C 50.265625 95.808594 50.546875 96.492188 51.085938 96.988281 C 52.304688 97.753906 53.808594 97.65625 55.1875 97.65625 L 55.828125 97.65625 C 56.402344 97.660156 56.976562 97.660156 57.550781 97.660156 C 57.910156 97.660156 58.269531 97.664062 58.628906 97.664062 C 59.886719 97.664062 61.148438 97.667969 62.40625 97.667969 C 63.574219 97.667969 64.742188 97.667969 65.910156 97.671875 C 66.917969 97.675781 67.925781 97.679688 68.929688 97.679688 C 69.53125 97.679688 70.128906 97.679688 70.730469 97.683594 C 71.296875 97.683594 71.859375 97.683594 72.425781 97.683594 C 72.628906 97.683594 72.835938 97.683594 73.042969 97.683594 C 75.121094 97.710938 75.121094 97.710938 76.960938 96.863281 C 77.441406 96.261719 77.691406 95.378906 77.667969 94.617188 C 77.53125 93.878906 77.328125 93.101562 76.75 92.589844 C 75.5625 91.820312 74.003906 91.917969 72.644531 91.925781 C 72.433594 91.925781 72.222656 91.925781 72.015625 91.925781 C 71.445312 91.925781 70.878906 91.925781 70.3125 91.925781 C 69.714844 91.929688 69.121094 91.929688 68.523438 91.929688 C 67.523438 91.929688 66.523438 91.929688 65.519531 91.933594 C 64.367188 91.933594 63.214844 91.9375 62.058594 91.933594 C 60.945312 91.933594 59.832031 91.933594 58.71875 91.9375 C 58.246094 91.9375 57.773438 91.9375 57.300781 91.9375 C 56.742188 91.9375 56.1875 91.9375 55.628906 91.941406 C 55.425781 91.941406 55.222656 91.941406 55.019531 91.941406 C 52.804688 91.878906 52.804688 91.878906 50.871094 92.804688 Z M 54.5625 101.929688 L 54.074219 101.941406 C 52.933594 101.984375 51.628906 102.035156 50.734375 102.839844 C 50.21875 103.59375 50.03125 104.414062 50.183594 105.316406 C 50.4375 106.191406 50.804688 106.730469 51.558594 107.238281 C 52.117188 107.515625 52.578125 107.550781 53.199219 107.550781 L 53.488281 107.554688 C 53.800781 107.554688 54.117188 107.554688 54.433594 107.554688 C 55.277344 107.558594 56.117188 107.5625 56.960938 107.5625 C 57.347656 107.5625 57.730469 107.5625 58.117188 107.5625 C 59.460938 107.566406 60.804688 107.566406 62.148438 107.566406 C 63.398438 107.566406 64.652344 107.566406 65.902344 107.574219 C 66.976562 107.574219 68.050781 107.578125 69.128906 107.578125 C 69.769531 107.578125 70.410156 107.578125 71.050781 107.582031 C 71.65625 107.582031 72.261719 107.582031 72.863281 107.582031 C 73.085938 107.582031 73.308594 107.582031 73.527344 107.582031 C 74.707031 107.59375 75.8125 107.589844 76.855469 106.964844 C 77.140625 106.667969 77.140625 106.667969 77.265625 106.277344 L 77.386719 106.027344 C 77.6875 105.347656 77.714844 104.804688 77.542969 104.078125 L 77.488281 103.757812 C 77.367188 103.238281 77.261719 102.933594 76.820312 102.613281 C 75.800781 102.089844 74.859375 101.988281 73.734375 101.9375 L 73.332031 101.921875 C 71.726562 101.855469 70.121094 101.859375 68.515625 101.859375 L 67.519531 101.859375 C 66.828125 101.859375 66.136719 101.859375 65.449219 101.859375 C 64.574219 101.859375 63.699219 101.859375 62.828125 101.859375 C 62.144531 101.859375 61.460938 101.859375 60.773438 101.859375 C 60.453125 101.859375 60.132812 101.859375 59.8125 101.859375 C 58.058594 101.859375 56.3125 101.875 54.5625 101.929688 Z M 53.054688 111.957031 L 52.75 111.96875 C 51.964844 112.007812 51.394531 112.207031 50.84375 112.773438 C 50.289062 113.613281 50.039062 114.351562 50.183594 115.351562 C 50.371094 116.082031 50.636719 116.582031 51.273438 117 C 53.214844 118.113281 56.609375 117.570312 58.746094 117.570312 C 59.226562 117.570312 59.710938 117.570312 60.195312 117.570312 C 61.003906 117.570312 61.8125 117.570312 62.621094 117.570312 C 63.550781 117.566406 64.480469 117.570312 65.410156 117.570312 C 66.214844 117.570312 67.019531 117.570312 67.828125 117.570312 C 68.304688 117.570312 68.78125 117.570312 69.261719 117.570312 C 71.714844 117.574219 71.714844 117.574219 74.167969 117.492188 L 74.460938 117.476562 C 75.417969 117.417969 76.410156 117.265625 77.128906 116.589844 C 77.546875 115.707031 77.820312 114.800781 77.519531 113.847656 L 77.40625 113.5625 L 77.296875 113.257812 C 77.070312 112.714844 76.96875 112.519531 76.417969 112.25 C 74.472656 111.453125 71.777344 111.894531 69.695312 111.894531 C 69.175781 111.894531 68.652344 111.894531 68.132812 111.894531 C 67.257812 111.894531 66.382812 111.894531 65.503906 111.894531 C 64.5 111.898438 63.496094 111.898438 62.488281 111.894531 C 61.621094 111.894531 60.75 111.894531 59.878906 111.894531 C 59.363281 111.894531 58.847656 111.894531 58.332031 111.894531 C 55.691406 111.890625 55.691406 111.890625 53.054688 111.957031 Z M 62.554688 122.089844 C 62.488281 122.476562 62.488281 122.476562 62.554688 122.914062 C 62.988281 123.3125 63.277344 123.449219 63.863281 123.523438 C 64.40625 123.453125 64.90625 123.3125 65.304688 122.914062 C 65.3125 122.636719 65.3125 122.363281 65.304688 122.089844 C 64.839844 121.804688 64.472656 121.777344 63.929688 121.777344 L 63.5 121.777344 C 63.113281 121.8125 62.886719 121.886719 62.554688 122.089844 Z M 62.554688 122.089844 "/>
<path style=" stroke:none;fill-rule:nonzero;fill:currentColor;fill-opacity:1;" d="M 69.578125 23.355469 L 70.105469 23.351562 C 70.582031 23.351562 71.054688 23.359375 71.53125 23.371094 C 72.027344 23.378906 72.523438 23.378906 73.019531 23.382812 C 73.960938 23.386719 74.902344 23.398438 75.839844 23.410156 C 76.910156 23.425781 77.980469 23.433594 79.050781 23.441406 C 81.253906 23.457031 83.453125 23.480469 85.652344 23.511719 C 85.453125 23.929688 85.257812 24.210938 84.921875 24.53125 L 84.683594 24.765625 L 84.417969 25.023438 C 84.1875 25.25 83.957031 25.480469 83.730469 25.710938 C 82.21875 27.222656 82.21875 27.222656 81.878906 27.558594 C 81.621094 27.816406 81.367188 28.074219 81.109375 28.332031 L 80.679688 28.769531 L 80.457031 28.996094 C 79.910156 29.542969 79.910156 29.542969 79.605469 29.695312 L 79.46875 30.109375 C 79.25 30.328125 79.25 30.328125 78.976562 30.554688 L 78.675781 30.8125 L 78.367188 31.070312 C 77.703125 31.628906 77.105469 32.199219 76.542969 32.863281 C 76.164062 33.296875 75.753906 33.695312 75.34375 34.097656 C 74.980469 34.460938 74.613281 34.824219 74.25 35.1875 L 74.042969 35.398438 L 47.84375 61.59375 L 47.539062 61.914062 C 47.296875 62.144531 47.296875 62.144531 47.019531 62.144531 C 47.003906 59.96875 46.992188 57.792969 46.984375 55.617188 C 46.980469 54.609375 46.976562 53.597656 46.96875 52.589844 C 46.960938 51.707031 46.957031 50.828125 46.957031 49.949219 C 46.953125 49.480469 46.953125 49.015625 46.949219 48.550781 C 46.941406 48.027344 46.941406 47.507812 46.941406 46.988281 L 46.933594 46.519531 C 46.941406 45.472656 46.941406 45.472656 47.351562 44.945312 L 47.707031 44.683594 C 47.871094 44.5 48.03125 44.320312 48.1875 44.132812 C 48.5625 43.703125 48.9375 43.28125 49.359375 42.894531 L 49.632812 42.894531 L 49.734375 42.664062 C 49.945312 42.277344 50.210938 41.984375 50.507812 41.660156 C 50.613281 41.542969 50.722656 41.425781 50.832031 41.304688 C 50.933594 41.195312 51.039062 41.085938 51.144531 40.972656 L 51.441406 40.652344 C 51.695312 40.421875 51.695312 40.421875 51.96875 40.421875 C 52.007812 40.339844 52.042969 40.261719 52.078125 40.179688 C 52.460938 39.46875 53.058594 38.878906 53.679688 38.375 C 54.207031 37.945312 54.589844 37.429688 55.003906 36.894531 C 55.332031 36.492188 55.6875 36.203125 56.09375 35.882812 L 56.230469 35.609375 L 56.507812 35.609375 L 56.601562 35.386719 C 57.011719 34.644531 57.582031 34.113281 58.230469 33.585938 C 58.449219 33.414062 58.449219 33.414062 58.570312 33.132812 L 58.84375 33.132812 L 58.929688 32.910156 C 59.199219 32.445312 59.566406 32.113281 59.953125 31.742188 C 60.496094 31.25 60.496094 31.25 60.90625 30.660156 L 61.179688 30.660156 L 61.269531 30.433594 C 61.523438 29.992188 61.875 29.667969 62.238281 29.320312 C 62.792969 28.777344 63.320312 28.226562 63.824219 27.632812 C 64.234375 27.175781 64.675781 26.75 65.113281 26.320312 C 65.394531 26.03125 65.664062 25.742188 65.925781 25.433594 L 66.140625 25.1875 C 66.328125 24.972656 66.511719 24.757812 66.691406 24.535156 C 67.597656 23.507812 68.230469 23.3125 69.578125 23.355469 Z M 69.578125 23.355469 "/>
<path style=" stroke:none;fill-rule:nonzero;fill:currentColor;fill-opacity:1;" d="M 67.402344 45.558594 C 67.769531 45.773438 67.929688 45.9375 68.199219 46.257812 C 68.816406 46.976562 69.484375 47.636719 70.15625 48.304688 L 70.5625 48.707031 C 70.988281 49.132812 71.410156 49.554688 71.835938 49.976562 C 72.332031 50.464844 72.824219 50.957031 73.316406 51.449219 C 73.511719 51.640625 73.707031 51.835938 73.902344 52.03125 C 74.527344 52.652344 75.128906 53.277344 75.699219 53.949219 C 75.949219 54.234375 76.222656 54.476562 76.511719 54.71875 C 76.910156 55.0625 77.265625 55.410156 77.601562 55.8125 C 77.964844 56.242188 78.355469 56.617188 78.78125 56.988281 C 79.296875 57.441406 79.742188 57.910156 80.183594 58.4375 C 80.457031 58.734375 80.742188 58.992188 81.046875 59.257812 C 81.445312 59.601562 81.800781 59.945312 82.140625 60.347656 C 82.503906 60.78125 82.894531 61.152344 83.316406 61.523438 C 84.148438 62.257812 84.824219 63.066406 85.515625 63.929688 L 48.671875 64.070312 C 50.582031 61.835938 50.582031 61.835938 51.574219 61.003906 C 51.839844 60.761719 52.066406 60.511719 52.296875 60.234375 C 52.664062 59.800781 53.054688 59.425781 53.480469 59.050781 C 53.902344 58.679688 54.289062 58.3125 54.652344 57.882812 C 55.113281 57.332031 55.636719 56.875 56.175781 56.398438 C 56.558594 56.046875 56.890625 55.664062 57.226562 55.265625 C 57.589844 54.863281 57.996094 54.523438 58.40625 54.167969 C 58.6875 53.910156 58.933594 53.644531 59.179688 53.351562 C 59.542969 52.921875 59.933594 52.550781 60.355469 52.175781 C 60.777344 51.804688 61.164062 51.4375 61.523438 51.007812 C 61.988281 50.457031 62.511719 50 63.050781 49.523438 C 63.34375 49.253906 63.605469 48.976562 63.863281 48.671875 C 64.324219 48.121094 64.847656 47.664062 65.382812 47.191406 C 65.785156 46.824219 66.132812 46.425781 66.476562 46.007812 C 66.769531 45.683594 66.957031 45.484375 67.402344 45.558594 Z M 47.019531 23.511719 L 64.480469 23.511719 C 64.203125 24.066406 63.960938 24.320312 63.519531 24.746094 C 63.363281 24.910156 63.207031 25.074219 63.054688 25.242188 L 62.808594 25.507812 L 62.554688 25.777344 C 62.015625 26.363281 61.46875 26.933594 60.90625 27.496094 C 60.652344 27.769531 60.398438 28.046875 60.148438 28.320312 C 59.792969 28.71875 59.433594 29.109375 59.054688 29.484375 C 58.796875 29.746094 58.542969 30.011719 58.296875 30.28125 L 58.085938 30.515625 C 57.941406 30.675781 57.800781 30.835938 57.65625 30.996094 C 57.289062 31.402344 57 31.65625 56.507812 31.898438 C 56.414062 32.078125 56.320312 32.261719 56.230469 32.445312 C 55.988281 32.738281 55.734375 33.027344 55.476562 33.304688 L 55.269531 33.535156 C 55.089844 33.730469 54.90625 33.914062 54.71875 34.097656 L 54.445312 34.097656 L 54.355469 34.316406 C 54.09375 34.78125 53.738281 35.144531 53.371094 35.53125 L 53.152344 35.765625 C 52.832031 36.109375 52.5 36.453125 52.167969 36.785156 C 51.8125 37.144531 51.472656 37.511719 51.136719 37.886719 C 50.25 38.871094 50.25 38.871094 49.90625 39.183594 L 49.632812 39.183594 L 49.527344 39.421875 C 49.207031 40.011719 48.714844 40.480469 48.257812 40.972656 L 48.050781 41.195312 C 47.730469 41.53125 47.4375 41.738281 47.019531 41.933594 C 47 40.382812 46.976562 38.835938 46.960938 37.285156 C 46.949219 36.566406 46.941406 35.84375 46.929688 35.125 C 46.921875 34.421875 46.914062 33.722656 46.90625 33.023438 C 46.902344 32.761719 46.898438 32.5 46.894531 32.238281 C 46.851562 29.324219 46.949219 26.425781 47.019531 23.511719 Z M 47.019531 23.511719 "/>
</g>
</svg>
